<?xml version="1.0" encoding="UTF-8"?>
<svg xmlns="http://www.w3.org/2000/svg" version="1.1" width="300" height="300" viewBox="0 0 300 300"><rect x="0" y="0" width="300" height="300" fill="#ffffff"/><g transform="scale(12)"><g transform="translate(0,0)"><path fill-rule="evenodd" d="M8 0L8 1L10 1L10 0ZM13 0L13 1L14 1L14 2L11 2L11 4L10 4L10 3L9 3L9 2L8 2L8 5L9 5L9 6L8 6L8 7L9 7L9 8L8 8L8 9L7 9L7 8L6 8L6 9L7 9L7 10L5 10L5 9L4 9L4 8L0 8L0 9L2 9L2 10L0 10L0 12L1 12L1 15L0 15L0 16L1 16L1 15L2 15L2 14L3 14L3 16L2 16L2 17L5 17L5 16L6 16L6 17L7 17L7 16L6 16L6 15L8 15L8 18L9 18L9 17L10 17L10 19L12 19L12 20L11 20L11 21L10 21L10 20L9 20L9 21L8 21L8 25L10 25L10 23L9 23L9 21L10 21L10 22L11 22L11 23L13 23L13 25L14 25L14 24L15 24L15 25L16 25L16 24L15 24L15 23L17 23L17 21L18 21L18 23L19 23L19 22L20 22L20 24L18 24L18 25L25 25L25 24L23 24L23 23L24 23L24 22L25 22L25 20L24 20L24 19L25 19L25 15L24 15L24 14L25 14L25 12L23 12L23 11L21 11L21 12L20 12L20 11L17 11L17 12L18 12L18 13L17 13L17 14L16 14L16 13L15 13L15 14L16 14L16 15L15 15L15 16L13 16L13 15L14 15L14 14L12 14L12 12L13 12L13 13L14 13L14 11L15 11L15 12L16 12L16 11L15 11L15 9L14 9L14 11L11 11L11 13L10 13L10 12L6 12L6 11L7 11L7 10L8 10L8 11L9 11L9 10L10 10L10 9L9 9L9 8L10 8L10 7L11 7L11 8L12 8L12 7L13 7L13 6L14 6L14 8L15 8L15 6L14 6L14 5L12 5L12 3L13 3L13 4L14 4L14 2L15 2L15 3L16 3L16 4L15 4L15 5L16 5L16 4L17 4L17 2L15 2L15 0ZM10 5L10 6L9 6L9 7L10 7L10 6L11 6L11 7L12 7L12 5ZM16 6L16 7L17 7L17 6ZM17 8L17 10L18 10L18 8ZM20 8L20 9L23 9L23 10L24 10L24 9L25 9L25 8L24 8L24 9L23 9L23 8ZM3 9L3 11L4 11L4 12L2 12L2 11L1 11L1 12L2 12L2 13L4 13L4 16L5 16L5 15L6 15L6 14L8 14L8 15L9 15L9 16L10 16L10 17L11 17L11 18L12 18L12 17L13 17L13 18L15 18L15 19L13 19L13 20L12 20L12 21L11 21L11 22L12 22L12 21L13 21L13 22L14 22L14 23L15 23L15 22L14 22L14 21L16 21L16 18L15 18L15 17L16 17L16 16L21 16L21 15L22 15L22 16L24 16L24 15L22 15L22 14L24 14L24 13L22 13L22 12L21 12L21 14L20 14L20 13L19 13L19 15L16 15L16 16L15 16L15 17L13 17L13 16L12 16L12 14L10 14L10 15L9 15L9 14L8 14L8 13L5 13L5 11L4 11L4 9ZM8 9L8 10L9 10L9 9ZM10 15L10 16L11 16L11 17L12 17L12 16L11 16L11 15ZM17 17L17 20L20 20L20 17ZM21 17L21 18L24 18L24 17ZM18 18L18 19L19 19L19 18ZM21 19L21 22L22 22L22 21L24 21L24 20L23 20L23 19ZM21 23L21 24L22 24L22 23ZM0 0L7 0L7 7L0 7ZM1 1L1 6L6 6L6 1ZM2 2L5 2L5 5L2 5ZM18 0L25 0L25 7L18 7ZM19 1L19 6L24 6L24 1ZM20 2L23 2L23 5L20 5ZM0 18L7 18L7 25L0 25ZM1 19L1 24L6 24L6 19ZM2 20L5 20L5 23L2 23Z" fill="#000000"/></g></g></svg>
